<svg width="24" height="24" viewBox="0 0 24 24" fill="none" xmlns="http://www.w3.org/2000/svg">
<path d="M6.99749 21H7.99749H17.4275C18.4975 21 19.4075 20.33 19.6175 19.39L20.9575 13.39C21.2275 12.15 20.1775 11 18.7675 11H14.5375L16.0575 6.06C16.3775 5.03 15.5375 4 14.3775 4C13.7975 4 13.2375 4.24 12.8575 4.65L6.99749 11H2.99749V21H6.99749ZM13.5975 5.33C13.7875 5.12 14.0775 5 14.3775 5C14.6375 5 14.8775 5.11 15.0075 5.3C15.0775 5.4 15.1575 5.56 15.0975 5.77L13.5775 10.71L13.1775 12H14.5375H18.7675C19.1775 12 19.5675 12.17 19.7975 12.46C19.9175 12.61 20.0475 12.86 19.9775 13.18L18.6375 19.18C18.5375 19.65 18.0275 20 17.4275 20H7.99749V11.39L13.5975 5.33ZM3.99749 12H6.99749V20H3.99749V12Z" fill="black"/>
</svg>
